<svg xmlns="http://www.w3.org/2000/svg" viewBox="0 0 87.56 70.38"><defs><style>.cls-1{fill:#efadce;}</style></defs><title>commentsPink</title><g id="Layer_2" data-name="Layer 2"><g id="Layer_1-2" data-name="Layer 1"><path class="cls-1" d="M43.78,64.6H62.56L81,35.18,62.55,5.77H25L6.57,35.18,25,64.6ZM64,70.38h-42L0,35.18,22.06,0H65.51l22,35.18L65.5,70.38Z"/><path class="cls-1" d="M61.46,60.73,47.31,49.51H25.87A5.92,5.92,0,0,1,20,43.6V21.75a5.92,5.92,0,0,1,5.91-5.91H61.72a5.92,5.92,0,0,1,5.91,5.91V43.6a5.92,5.92,0,0,1-5.91,5.91h-.26ZM25.87,19.84A1.92,1.92,0,0,0,24,21.75V43.6a1.92,1.92,0,0,0,1.91,1.91H48.71l8.75,6.94V45.51h4.26a1.92,1.92,0,0,0,1.91-1.91V21.75a1.92,1.92,0,0,0-1.91-1.91Z"/><path class="cls-1" d="M52.59,27.13H33a1.5,1.5,0,0,1,0-3H52.59a1.5,1.5,0,0,1,0,3Z"/><path class="cls-1" d="M55.84,33.76H36.21a1.5,1.5,0,1,1,0-3H55.84a1.5,1.5,0,1,1,0,3Z"/><path class="cls-1" d="M51.46,40.38H31.84a1.5,1.5,0,1,1,0-3H51.46a1.5,1.5,0,0,1,0,3Z"/></g></g></svg>