<svg xmlns="http://www.w3.org/2000/svg" viewBox="0 0 90.85 71.07"><defs><style>.cls-1,.cls-2{fill:#469079;}.cls-2{fill-rule:evenodd;}</style></defs><title>Asset 42</title><g id="Layer_2" data-name="Layer 2"><g id="Layer_1-2" data-name="Layer 1"><path class="cls-1" d="M45.42,65.23H64.9L84,35.53,64.9,5.82H26L6.82,35.53,26,65.23Zm21,5.84h-21v0H22.88L0,35.53,22.88,0H68L90.85,35.53,68,71.07Z"/><polygon class="cls-1" points="10.16 46.71 29.58 21.79 66.68 65.38 62.38 69.2 29.76 30.88 14.62 50.33 10.16 46.71"/><polygon class="cls-1" points="48.65 46.64 63.86 29.5 80.12 49.3 75.76 53.03 63.69 38.35 52.85 50.56 48.65 46.64"/><path class="cls-2" d="M59.09,12.66a5.86,5.86,0,1,1-5.73,5.85,5.79,5.79,0,0,1,5.73-5.85"/></g></g></svg>