<svg xmlns="http://www.w3.org/2000/svg" viewBox="0 0 92.29 71.37"><defs><style>.cls-1{fill:#96d4c2;fill-rule:evenodd;}</style></defs><title>galleryLightGreen</title><g id="Layer_2" data-name="Layer 2"><g id="Layer_1-2" data-name="Layer 1"><path class="cls-1" d="M53.34,20.57a5.19,5.19,0,1,1,5.19,5.2,5.2,5.2,0,0,1-5.19-5.2M28.5,9.29,11.17,35.68l4.94,7.53L31.79,23.47,50,44.49,62.85,30.33,75.06,44.9l6.06-9.22L63.79,9.29Z"/><polygon class="cls-1" points="31.96 31.55 19.09 47.74 28.5 62.06 46.15 62.06 46.15 62.05 58.44 62.05 31.96 31.55"/><polygon class="cls-1" points="62.7 38.18 53.44 48.41 64.43 61.08 72.1 49.41 62.7 38.18"/><path class="cls-1" d="M65.18,67.25H25.72L5,35.68,25.72,4.12H66.57L87.3,35.68,66.56,67.25Zm0,4.12H41.94v0H23.43L0,35.68,23.44,0H68.85L92.29,35.68,68.84,71.37Z"/></g></g></svg>