<?xml version="1.0" encoding="utf-8"?>
<!-- Generator: Adobe Illustrator 23.0.3, SVG Export Plug-In . SVG Version: 6.00 Build 0)  -->
<svg version="1.1" id="Layer_1" xmlns="http://www.w3.org/2000/svg" xmlns:xlink="http://www.w3.org/1999/xlink" x="0px" y="0px"
	 viewBox="0 0 86.8 69.8" style="enable-background:new 0 0 86.8 69.8;" xml:space="preserve">
<style type="text/css">
	.st0{stroke:#000000;stroke-miterlimit:10;}
</style>
<title>Asset 50</title>
<g>
	<path class="st0" d="M76,17.5L65.1,0H21.7L10.8,17.5L0,34.9l10.8,17.5l10.9,17.5h43.4L76,52.4l10.8-17.5L76,17.5z M71.3,49.7
		L62,64.6H24.8l-9.3-14.9L6.3,34.9l9.2-14.8l9.3-14.9H62l9.3,14.9l9.2,14.8L71.3,49.7z"/>
	<path class="st0" d="M45.7,20.4l-2.3,2.3l-2.3-2.3c-4.7-4.7-12.5-4.7-17.2,0c-2.3,2.3-3.5,5.4-3.5,8.6c0,3.2,1.3,6.3,3.5,8.6
		L43.4,57l19.5-19.5c4.7-4.7,4.7-12.5,0-17.2C58.1,15.6,50.4,15.6,45.7,20.4z M60.7,35.3L43.4,52.7L26.1,35.4
		c-1.7-1.7-2.7-4-2.7-6.4c0-2.4,0.9-4.7,2.7-6.4c1.8-1.8,4.1-2.7,6.4-2.7c2.3,0,4.6,0.9,6.4,2.7l4.5,4.5l4.5-4.5
		c3.5-3.5,9.3-3.5,12.8,0c1.7,1.7,2.7,4,2.7,6.4S62.4,33.6,60.7,35.3z"/>
</g>
</svg>
