<svg xmlns="http://www.w3.org/2000/svg" viewBox="0 0 86.81 69.84"><defs><style>.cls-1,.cls-2{fill:#efadce;}.cls-2{fill-rule:evenodd;}</style></defs><title>Asset 50</title><g id="Layer_2" data-name="Layer 2"><g id="Layer_1-2" data-name="Layer 1"><path class="cls-1" d="M31.43,52.76H23.26a5,5,0,0,1-5-4.89V30a5,5,0,0,1,5-4.9h11a2.22,2.22,0,0,1,2.22,2.2V47.87A5,5,0,0,1,31.43,52.76Zm-8.17-24A1.3,1.3,0,0,0,21.91,30V47.87a1.31,1.31,0,0,0,1.35,1.21h8.17a1.31,1.31,0,0,0,1.35-1.21V28.75Z"/><path class="cls-1" d="M52.71,53c-6.34,0-9.55-.58-17.29-2.32a1.84,1.84,0,0,1,.81-3.58c9.19,2.07,11.58,2.41,21.06,2.15,2.73-.07,4.89-4.38,7-13.94.62-2.82.47-4.9-.44-6a2.86,2.86,0,0,0-2.07-1l-11.24,0h0a1.83,1.83,0,0,1-1.7-2.52c2-5.08,2.82-9.65,1.88-11.11-.09-.14-.27-.42-1-.45-.55,0-2.14.69-4.85,7.85-2.38,6.29-9.1,8.81-9.39,8.91a1.84,1.84,0,0,1-1.26-3.45c.08,0,5.44-2.07,7.22-6.76,2-5.42,4.52-10.42,8.46-10.22a4.66,4.66,0,0,1,3.89,2.14c1.84,2.86.7,8-.63,11.93l8.58,0A6.48,6.48,0,0,1,66.66,27c1.69,2.05,2.1,5.14,1.21,9.19C65.67,46.12,63,52.8,57.39,53,55.63,53,54.1,53,52.71,53Z"/><path class="cls-2" d="M65.11,69.84,76,52.38,86.81,34.92,76,17.46,65.11,0H21.7L10.85,17.46,0,34.92,10.85,52.38,21.7,69.84H65.11ZM62,64.65l9.27-14.91,9.21-14.82L71.31,20.1,62,5.18H24.77L15.5,20.1,6.29,34.92,15.5,49.74l9.27,14.91H62Z"/></g></g></svg>