<?xml version="1.0" encoding="utf-8"?>
<!-- Generator: Adobe Illustrator 23.0.3, SVG Export Plug-In . SVG Version: 6.00 Build 0)  -->
<svg version="1.1" id="Layer_1" xmlns="http://www.w3.org/2000/svg" xmlns:xlink="http://www.w3.org/1999/xlink" x="0px" y="0px"
	 viewBox="0 0 87.6 70.4" style="enable-background:new 0 0 87.6 70.4;" xml:space="preserve">
<style type="text/css">
	.st0{fill:#EFADCE;}
</style>
<title>commentsBlack</title>
<g>
	<path class="st0" d="M65.5,0H22.1L0,35.2l22,35.2h42h1.5l22-35.2L65.5,0z M62.6,64.6H43.8H25L6.6,35.2L25,5.8h37.5L81,35.2
		L62.6,64.6z"/>
	<path class="st0" d="M67.1,26.4c-1.2-1.5-3-2.3-4.9-2.4h-8.6c1.3-3.9,2.5-9.1,0.6-11.9C53.4,10.8,52,10,50.4,10
		c-3.9-0.2-6.5,4.8-8.5,10.2c-1.1,2.8-3.4,4.7-5.1,5.7c-0.3-0.8-1.1-1.4-2.1-1.4h-11c-2.7,0-4.9,2.2-5,4.9v17.9
		c0.1,2.7,2.3,4.9,5,4.9h8.2c1.7,0,3.2-0.8,4.1-2.1c7.7,1.7,10.9,2.3,17.2,2.3c1.4,0,2.9,0,4.7,0c5.6-0.2,8.3-6.9,10.5-16.8
		C69.2,31.6,68.8,28.5,67.1,26.4z M33.3,47.3c-0.1,0.7-0.6,1.2-1.4,1.2h-8.2c-0.7,0-1.3-0.5-1.3-1.2V29.4c0-0.7,0.6-1.3,1.3-1.2
		l9.5,0V47.3z M64.8,34.7c-2.1,9.6-4.3,13.9-7,13.9c-9.4,0.3-11.8-0.1-20.8-2.1V30c2-1,6.5-3.6,8.4-8.5c2.7-7.2,4.3-7.8,4.9-7.8
		c0.7,0,0.9,0.3,1,0.4c0.9,1.5,0.1,6-1.9,11.1c-0.1,0.2-0.1,0.5-0.1,0.7c0,1,0.8,1.8,1.8,1.8h11.2c0.8,0,1.6,0.4,2.1,1
		C65.2,29.8,65.4,31.9,64.8,34.7z"/>
</g>
</svg>
