<svg xmlns="http://www.w3.org/2000/svg" viewBox="0 0 91 71.83"><defs><style>.cls-1{fill:#efadce;fill-rule:evenodd;}</style></defs><title>likesPink</title><g id="Layer_2" data-name="Layer 2"><g id="Layer_1-2" data-name="Layer 1"><path class="cls-1" d="M37.57,27.41A2,2,0,0,1,39,28a1.77,1.77,0,0,1,.45.66,10.13,10.13,0,0,0,4.36-4.83,28.59,28.59,0,0,1,2.93-6C48,16,49.4,15,51.12,15.11a4.79,4.79,0,0,1,1.44.27A3.91,3.91,0,0,1,55,17.76a7.47,7.47,0,0,1,.39,3.08A24.56,24.56,0,0,1,54,27.06l7.4,0s7.57-.19,5.34,9.7a40.63,40.63,0,0,1-3.2,9.87C62,49.39,60.14,51,57.6,51a71.56,71.56,0,0,1-9.71-.19,81.18,81.18,0,0,1-9.2-1.68,3.64,3.64,0,0,1-.46.5h0a4.54,4.54,0,0,1-3.1,1.21H28.06A4.56,4.56,0,0,1,25,49.65h0a4,4,0,0,1-1.29-2.9V31.53A4,4,0,0,1,25,28.62h0a4.56,4.56,0,0,1,3.1-1.21ZM27.88,8,10.31,35.73,27.88,63.48H63.12L80.69,35.73,63.12,8H27.88Z"/><path class="cls-1" d="M39.52,32V46.19a80.33,80.33,0,0,0,8.72,1.61,70.3,70.3,0,0,0,9.27.18c1.18,0,2.17-1,3.09-2.73a38.56,38.56,0,0,0,2.93-9.13c1.38-6.15-2.13-6-2.14-6l-9.59,0a1.72,1.72,0,0,1-.71-.09,1.5,1.5,0,0,1-.94-2,26.49,26.49,0,0,0,2-7.34,4.76,4.76,0,0,0-.2-1.9.9.9,0,0,0-.5-.57,1.44,1.44,0,0,0-.44-.08c-.43,0-.95.46-1.57,1.34a25.91,25.91,0,0,0-2.58,5.32C45.21,29,41.25,31.22,39.52,32"/><path class="cls-1" d="M26.92,31.53V46.74a1,1,0,0,0,.34.75h0a1.15,1.15,0,0,0,.8.32h7.07a1.15,1.15,0,0,0,.8-.32h0a1,1,0,0,0,.33-.75V30.46H28.06a1.15,1.15,0,0,0-.8.32h0a1,1,0,0,0-.33.75"/><path class="cls-1" d="M64.27,67.68H25.36L4.92,35.91,25.36,4.15H65.64L86.08,35.91,65.63,67.68Zm0,4.15H41.35v0H23.1L0,35.91,23.11,0H67.89L91,35.91,67.88,71.83Z"/></g></g></svg>