<svg xmlns="http://www.w3.org/2000/svg" viewBox="0 0 81.44 70.55"><defs><style>.cls-1{fill:#333;}</style></defs><title>profileGrey</title><g id="Layer_2" data-name="Layer 2"><g id="Layer_1-2" data-name="Layer 1"><path class="cls-1" d="M68.68,46l6.16-10.68L57.78,5.72H40.72v0H23.66L15.13,20.51h0L6.59,35.28l6.13,10.6c-1.14,1-2.62,2.48-4.19,4.17L0,35.28,10.18,17.65h0L20.36,0H61.08L81.44,35.28,72.86,50.14c-1.55-1.7-3-3.14-4.18-4.19m-9.25,24.6H20.37L11.54,55.26C13,53.59,14.45,52.11,15.66,51l8,13.85H57.79l7.95-13.77a58.75,58.75,0,0,1,4.11,4.3l-8.78,15.2Z"/><path class="cls-1" d="M31.7,48.42s-9.45,2.71-13.92,8.77l-4.59-3.41c5.61-7.6,16.89-10.84,16.92-10.85Z"/><path class="cls-1" d="M51.37,42.77S62.68,46,68.3,53.62L63.7,57C59.24,51,49.81,48.26,49.78,48.26Z"/><path class="cls-1" d="M48.47,22a10.49,10.49,0,0,0-8-4,10.52,10.52,0,0,0-8,4,16.08,16.08,0,0,0-3.55,10.32,16.07,16.07,0,0,0,3.55,10.31,10.52,10.52,0,0,0,8,4,10.49,10.49,0,0,0,8-4A16.07,16.07,0,0,0,52,32.32,16.08,16.08,0,0,0,48.47,22m-8-9.74a16.14,16.14,0,0,1,12.39,6.07,21.74,21.74,0,0,1,4.9,14,21.74,21.74,0,0,1-4.9,14,16.14,16.14,0,0,1-12.39,6.07A16.14,16.14,0,0,1,28.08,46.3a21.78,21.78,0,0,1-4.89-14,21.79,21.79,0,0,1,4.89-14A16.14,16.14,0,0,1,40.47,12.26Z"/></g></g></svg>