<svg xmlns="http://www.w3.org/2000/svg" viewBox="0 0 84.69 71.32"><defs><style>.cls-1{fill:#efadce;fill-rule:evenodd;}</style></defs><title>profilePink</title><g id="Layer_2" data-name="Layer 2"><g id="Layer_1-2" data-name="Layer 1"><path class="cls-1" d="M42.34,8.73H26.79L19,22.2h0L11.24,35.66,19.51,50a33.23,33.23,0,0,1,9.92-6.17A20.27,20.27,0,0,1,26.36,33a19.91,19.91,0,0,1,4.46-12.75,14.76,14.76,0,0,1,11.3-5.53,14.73,14.73,0,0,1,11.29,5.53A19.86,19.86,0,0,1,57.88,33,20.35,20.35,0,0,1,55,43.54a34.53,34.53,0,0,1,9.8,5.89l8.67-13.77L57.9,8.72H42.34Z"/><path class="cls-1" d="M42.12,19.91a9.58,9.58,0,0,0-7.29,3.65A14.65,14.65,0,0,0,31.59,33a14.61,14.61,0,0,0,3.24,9.4A9.55,9.55,0,0,0,42.12,46a9.55,9.55,0,0,0,7.29-3.65A14.61,14.61,0,0,0,52.65,33a14.63,14.63,0,0,0-3.24-9.4,9.58,9.58,0,0,0-7.29-3.65"/><path class="cls-1" d="M51.39,47.75A14.05,14.05,0,0,1,33.11,48c-2.21.77-7.55,2.93-10.9,6.7l4.57,7.92H57.9l4.64-8c-3.46-3.93-9.09-6.11-11.15-6.81"/><path class="cls-1" d="M63.52,71.32,84.69,35.66,63.52,0H21.17L0,35.66,21.17,71.32H63.52Zm-2.61-4.56,18.46-31.1L60.91,4.57H23.78L5.32,35.66l18.46,31.1H60.91Z"/></g></g></svg>