<svg xmlns="http://www.w3.org/2000/svg" viewBox="0 0 88.11 71.29"><defs><style>.cls-1{fill:#96d4c2;fill-rule:evenodd;}</style></defs><title>searchLightGreen</title><g id="Layer_2" data-name="Layer 2"><g id="Layer_1-2" data-name="Layer 1"><path class="cls-1" d="M50.92,39.86,62.15,49a2.52,2.52,0,0,1,.67.79,2.72,2.72,0,0,1,.31,1,2.55,2.55,0,0,1-.09,1,2.8,2.8,0,0,1-.48.92,2.6,2.6,0,0,1-1.79,1,2.58,2.58,0,0,1-1-.09,2.9,2.9,0,0,1-.92-.48L47,43.52l.53-.51.6-.6.52-.58v0l.14-.16c.21-.25.42-.51.62-.8s.39-.55.57-.83l.39-.61ZM27.27,9.33,10.78,35.64l16.49,26.3H60.85L77.33,35.64,60.84,9.33ZM47,21.16a14.41,14.41,0,1,1-10.19-4.22A14.37,14.37,0,0,1,47,21.16Z"/><path class="cls-1" d="M29.82,24.37a9.87,9.87,0,1,0,7-2.9,9.82,9.82,0,0,0-7,2.9"/><path class="cls-1" d="M29.82,24.37a9.87,9.87,0,1,0,7-2.9,9.82,9.82,0,0,0-7,2.9"/><path class="cls-1" d="M62.16,67.11H24.63L4.91,35.64,24.63,4.18H63.48L83.2,35.64,63.48,67.11Zm0,4.18H39.88v0H22.33L0,35.64,22.34,0H65.77L88.11,35.64,65.76,71.29Z"/><path class="cls-1" d="M62.16,67.11H24.63L4.91,35.64,24.63,4.18H63.48L83.2,35.64,63.48,67.11Zm0,4.18H39.88v0H22.33L0,35.64,22.34,0H65.77L88.11,35.64,65.76,71.29Z"/></g></g></svg>