<svg xmlns="http://www.w3.org/2000/svg" viewBox="0 0 87.56 70.38"><defs><style>.cls-1{fill:#469079;}</style></defs><title>searchDarkGreen</title><g id="Layer_2" data-name="Layer 2"><g id="Layer_1-2" data-name="Layer 1"><path class="cls-1" d="M43.5,22.58a11.07,11.07,0,1,0,3.23,7.81,11,11,0,0,0-3.23-7.81m8,17.33L64,50.07a3,3,0,0,1,1.09,2,2.91,2.91,0,0,1-.64,2.18,2.84,2.84,0,0,1-.88.75,3.19,3.19,0,0,1-1.11.35,3,3,0,0,1-1.15-.11,2.81,2.81,0,0,1-1-.53L47.06,44l.6-.57c.22-.21.45-.44.66-.67s.39-.42.58-.65h0l.15-.18c.24-.28.47-.58.7-.9s.44-.61.64-.93l.43-.68ZM35.68,14.27A16.12,16.12,0,1,1,24.28,19,16.11,16.11,0,0,1,35.68,14.27Z"/><path class="cls-1" d="M43.78,64.6H62.56L81,35.18,62.55,5.77H25L6.57,35.18,25,64.6ZM64,70.38h-42L0,35.18,22.06,0H65.51l22,35.18L65.5,70.38Z"/></g></g></svg>