<?xml version="1.0" encoding="utf-8"?>
<!-- Generator: Adobe Illustrator 23.0.3, SVG Export Plug-In . SVG Version: 6.00 Build 0)  -->
<svg version="1.1" id="Layer_1" xmlns="http://www.w3.org/2000/svg" xmlns:xlink="http://www.w3.org/1999/xlink" x="0px" y="0px"
	 viewBox="0 0 87.6 70.4" style="enable-background:new 0 0 87.6 70.4;" xml:space="preserve">
<style type="text/css">
	.st0{fill:#DED6C7;}
</style>
<title>commentsBlack</title>
<g>
	<g id="Layer_1-2">
		<path class="st0" d="M43.8,64.6h18.8L81,35.2L62.5,5.8H25L6.6,35.2L25,64.6H43.8z M64,70.4H22L0,35.2L22.1,0h43.5l22,35.2
			l-22,35.2H64z"/>
	</g>
</g>
<path class="st0" d="M59.2,29.4c0.1-0.6,0.1-1.2,0.1-1.8c0-8.5-7-15.5-15.5-15.5s-15.5,7-15.5,15.5c0,0.6,0.1,1.2,0.1,1.8
	c-4.6,2.7-7.7,7.7-7.7,13.3c0,8.6,7,15.5,15.5,15.5c2.7,0,5.3-0.7,7.6-2c2.3,1.3,4.9,2,7.6,2c8.5,0,15.5-7,15.5-15.5
	C66.9,37.1,63.8,32.1,59.2,29.4z M43.7,15.6c6.6,0,12,5.4,12,12c0,0.1,0,0.2,0,0.3c-1.4-0.4-2.9-0.7-4.4-0.7c-2.7,0-5.3,0.7-7.6,2
	c-2.3-1.3-4.9-2-7.6-2c-1.5,0-3,0.2-4.4,0.7c0-0.1,0-0.2,0-0.3C31.8,21,37.1,15.6,43.7,15.6z M43.7,33.5c1.7,1.4,3.1,3.3,3.8,5.5
	c-1.2,0.4-2.5,0.6-3.8,0.6S41.1,39.4,40,39C40.8,36.8,42.1,34.9,43.7,33.5z M36.9,37.4c-2-1.4-3.6-3.5-4.4-6
	c1.2-0.4,2.5-0.6,3.8-0.6c1.6,0,3.1,0.3,4.4,0.8C38.9,33.2,37.6,35.2,36.9,37.4z M46.9,31.6c1.4-0.5,2.9-0.8,4.4-0.8
	c1.3,0,2.6,0.2,3.8,0.6c-0.8,2.4-2.4,4.5-4.4,6C49.9,35.2,48.6,33.2,46.9,31.6z M36.1,54.8c-6.6,0-12-5.4-12-12c0-4,2-7.6,5.1-9.8
	c1.2,3.4,3.6,6.2,6.8,8c-0.1,0.6-0.1,1.2-0.1,1.8c0,4.4,1.8,8.3,4.7,11.1C39.2,54.5,37.7,54.8,36.1,54.8z M43.7,52.1
	c-2.7-2.2-4.4-5.5-4.4-9.3c0-0.1,0-0.2,0-0.3c1.4,0.4,2.9,0.7,4.4,0.7s3-0.2,4.4-0.7c0,0.1,0,0.2,0,0.3
	C48.2,46.5,46.4,49.9,43.7,52.1z M51.4,54.8c-1.6,0-3.1-0.3-4.4-0.8c2.9-2.8,4.7-6.8,4.7-11.1c0-0.6-0.1-1.2-0.1-1.8
	c3.1-1.8,5.5-4.6,6.8-8c3.1,2.1,5.1,5.7,5.1,9.8C63.4,49.4,58,54.8,51.4,54.8z"/>
</svg>
