<?xml version="1.0" encoding="utf-8"?>
<!-- Generator: Adobe Illustrator 23.0.3, SVG Export Plug-In . SVG Version: 6.00 Build 0)  -->
<svg version="1.1" id="Layer_1" xmlns="http://www.w3.org/2000/svg" xmlns:xlink="http://www.w3.org/1999/xlink" x="0px" y="0px"
	 viewBox="0 0 90.8 71.1" style="enable-background:new 0 0 90.8 71.1;" xml:space="preserve">
<style type="text/css">
	.st0{fill:#DED6C7;}
</style>
<title>Asset 32</title>
<path class="st0" d="M69.1,26.6c0.1-0.9,0.2-1.8,0.2-2.8C69.3,10.7,58.6,0,45.4,0S21.6,10.7,21.6,23.9c0,0.9,0.1,1.9,0.2,2.8
	C14.7,30.8,9.9,38.5,9.9,47.2c0,13.2,10.7,23.9,23.9,23.9c4.2,0,8.2-1.1,11.7-3.1c3.5,2,7.5,3.1,11.7,3.1C70.3,71.1,81,60.4,81,47.2
	C81,38.5,76.2,30.8,69.1,26.6z M45.4,5.4c10.2,0,18.4,8.3,18.4,18.4c0,0.2,0,0.3,0,0.5c-2.1-0.6-4.4-1-6.7-1
	c-4.2,0-8.2,1.1-11.7,3.1c-3.5-2-7.5-3.1-11.7-3.1c-2.3,0-4.6,0.3-6.7,1c0-0.2,0-0.3,0-0.5C27,13.7,35.2,5.4,45.4,5.4z M45.4,33
	c2.6,2.2,4.7,5.1,5.8,8.4c-1.8,0.6-3.8,0.9-5.8,0.9s-4-0.3-5.8-0.9C40.8,38,42.8,35.1,45.4,33z M34.8,38.9c-3.1-2.2-5.6-5.4-6.8-9.2
	c1.8-0.6,3.8-0.9,5.8-0.9c2.4,0,4.7,0.5,6.8,1.3C38,32.5,36,35.5,34.8,38.9z M50.3,30.1c2.1-0.8,4.4-1.3,6.8-1.3c2,0,4,0.3,5.8,0.9
	c-1.3,3.7-3.7,6.9-6.8,9.2C54.8,35.5,52.8,32.5,50.3,30.1z M33.7,65.7c-10.2,0-18.4-8.3-18.4-18.4c0-6.2,3.1-11.7,7.8-15
	c1.9,5.2,5.6,9.5,10.4,12.3c-0.1,0.9-0.2,1.8-0.2,2.8c0,6.7,2.8,12.8,7.3,17.1C38.4,65.2,36.1,65.7,33.7,65.7z M45.4,61.5
	c-4.1-3.4-6.7-8.5-6.7-14.3c0-0.2,0-0.3,0-0.5c2.1,0.6,4.4,1,6.7,1c2.3,0,4.6-0.3,6.7-1c0,0.2,0,0.3,0,0.5
	C52.2,53,49.5,58.1,45.4,61.5z M57.1,65.7c-2.4,0-4.7-0.5-6.8-1.3c4.5-4.3,7.3-10.4,7.3-17.1c0-0.9-0.1-1.9-0.2-2.8
	c4.7-2.8,8.4-7.1,10.4-12.3c4.7,3.3,7.8,8.8,7.8,15C75.6,57.4,67.3,65.7,57.1,65.7z"/>
</svg>
