<svg xmlns="http://www.w3.org/2000/svg" viewBox="0 0 87.56 70.38"><defs><style>.cls-1{fill:#469079;}</style></defs><title>viewsGreen</title><g id="Layer_2" data-name="Layer 2"><g id="Layer_1-2" data-name="Layer 1"><path class="cls-1" d="M75.71,33.16C65.07,21.42,53.83,15.73,42.28,16.28c-18,.84-29.9,16.47-30.4,17.13l-1,1.27L11.87,36c.54.72,13.29,17.73,31.69,18.16h.71c11.1,0,21.7-6.12,31.51-18.19l1.15-1.41ZM41,29.67a4,4,0,1,1-4-4A4,4,0,0,1,41,29.67Zm-24.66,5C19,31.61,26.72,23.76,37.27,21.27a15.29,15.29,0,0,0-.85,27.41C26.44,45.68,19,37.8,16.33,34.7ZM50.4,49.11a15.28,15.28,0,0,0,.29-27.72c7,1.78,13.89,6.2,20.61,13.28C64.59,42.53,57.58,47.36,50.4,49.11Z"/><path class="cls-1" d="M65.51,0H22.06L0,35.18,22.06,70.37H65.5l22.06-35.2Zm-3,64.59H25L6.57,35.18,25,5.77H62.55L81,35.18Z"/></g></g></svg>