<svg xmlns="http://www.w3.org/2000/svg" viewBox="0 0 87.56 70.38"><defs><style>.cls-1,.cls-2{fill:#ded6c7;}.cls-2{fill-rule:evenodd;}</style></defs><title>viewsCream_1</title><g id="Layer_2" data-name="Layer 2"><g id="Layer_1-2" data-name="Layer 1"><path class="cls-1" d="M44.11,54.61h-.72C25,54.17,12.24,37.16,11.71,36.44l-.94-1.27.94-1.27c.5-.66,12.41-16.3,30.41-17.14,11.54-.54,22.79,5.15,33.42,16.89L76.77,35l-1.15,1.41C65.8,48.49,55.21,54.61,44.11,54.61ZM16.16,35.19C19.4,39,30,50,43.52,50.35h.58c9.33,0,18.42-5.11,27-15.2C61.78,25.31,52.08,20.57,42.32,21,29.12,21.63,19.28,31.61,16.16,35.19Z"/><path class="cls-2" d="M36.84,26.17a4,4,0,1,1-4,4,4,4,0,0,1,4-4m6.85-5.87A15.37,15.37,0,1,1,28.16,35.67,15.45,15.45,0,0,1,43.69,20.3Z"/><path class="cls-1" d="M43.78,64.6H62.56L81,35.18,62.55,5.77H25L6.57,35.18,25,64.6ZM64,70.38h-42L0,35.18,22.06,0H65.51l22,35.18L65.5,70.38Z"/></g></g></svg>