<svg xmlns="http://www.w3.org/2000/svg" viewBox="0 0 90.81 70.83"><defs><style>.cls-1,.cls-2{fill:#469079;}.cls-2{fill-rule:evenodd;}</style></defs><title>Asset 46</title><g id="Layer_2" data-name="Layer 2"><g id="Layer_1-2" data-name="Layer 1"><path class="cls-1" d="M45.77,54.35h-.71c-18.4-.43-31.15-17.44-31.69-18.16l-.93-1.27.94-1.27c.5-.66,12.4-16.29,30.41-17.13C55.33,16,66.57,21.65,77.21,33.4l1.22,1.35-1.15,1.41C67.47,48.23,56.87,54.35,45.77,54.35ZM17.83,34.93c3.24,3.81,13.8,14.86,27.36,15.16h.57c9.34,0,18.43-5.11,27-15.2C63.45,25.05,53.74,20.31,44,20.75,30.78,21.37,21,31.35,17.83,34.93Z"/><path class="cls-1" d="M45.4,70.83H22.82L0,35.41,22.82,0H68L90.81,35.41,68,70.82Zm-20-4.75h40L85.16,35.41,65.4,4.75h-40L5.65,35.41Z"/><path class="cls-2" d="M38.5,25.91a4,4,0,1,1-4,4,4,4,0,0,1,4-4M45.36,20A15.37,15.37,0,1,1,29.82,35.41,15.45,15.45,0,0,1,45.36,20Z"/></g></g></svg>