<svg xmlns="http://www.w3.org/2000/svg" viewBox="0 0 87.56 70.38"><defs><style>.cls-1,.cls-2{fill:#333;}.cls-2{fill-rule:evenodd;}</style></defs><title>viewsGrey_1</title><g id="Layer_2" data-name="Layer 2"><g id="Layer_1-2" data-name="Layer 1"><path class="cls-1" d="M44.11,53.94h-.72C25,53.5,12.24,36.49,11.71,35.77l-.94-1.27.94-1.27c.5-.66,12.41-16.29,30.41-17.13C53.66,15.55,64.91,21.24,75.54,33l1.23,1.35-1.15,1.41C65.8,47.83,55.21,53.94,44.11,53.94ZM16.16,34.52C19.4,38.33,30,49.38,43.52,49.68h.58c9.33,0,18.42-5.11,27-15.2C61.78,24.65,52.08,19.9,42.32,20.35,29.12,21,19.28,30.94,16.16,34.52Z"/><path class="cls-2" d="M36.84,25.5a4,4,0,1,1-4,4,4,4,0,0,1,4-4m6.85-5.87A15.38,15.38,0,1,1,28.16,35,15.45,15.45,0,0,1,43.69,19.63Z"/><path class="cls-1" d="M43.78,64.6H62.56L81,35.18,62.55,5.77H25L6.57,35.18,25,64.6ZM64,70.38h-42L0,35.18,22.06,0H65.51l22,35.18L65.5,70.38Z"/></g></g></svg>