<svg xmlns="http://www.w3.org/2000/svg" viewBox="0 0 87.56 70.38"><defs><style>.cls-1,.cls-2{fill:#efadce;}.cls-2{fill-rule:evenodd;}</style></defs><title>viewsPink_1</title><g id="Layer_2" data-name="Layer 2"><g id="Layer_1-2" data-name="Layer 1"><path class="cls-1" d="M44.27,54.12h-.71C25.16,53.68,12.41,36.67,11.87,36l-.94-1.27,1-1.27c.5-.66,12.4-16.29,30.4-17.13,11.55-.55,22.79,5.14,33.43,16.88l1.22,1.36-1.15,1.41C66,48,55.37,54.12,44.27,54.12ZM16.33,34.7c3.24,3.81,13.8,14.86,27.35,15.16h.58c9.34,0,18.43-5.11,27-15.2C62,24.82,52.24,20.08,42.48,20.52,29.28,21.14,19.44,31.12,16.33,34.7Z"/><path class="cls-2" d="M37,25.68a4,4,0,1,1-4,4,4,4,0,0,1,4-4m6.86-5.87A15.37,15.37,0,1,1,28.32,35.18,15.45,15.45,0,0,1,43.86,19.81Z"/><path class="cls-1" d="M43.78,64.6H62.56L81,35.18,62.55,5.77H25L6.57,35.18,25,64.6ZM64,70.38h-42L0,35.18,22.06,0H65.51l22,35.18L65.5,70.38Z"/></g></g></svg>