<svg xmlns="http://www.w3.org/2000/svg" viewBox="0 0 90.46 71.01"><defs><style>.cls-1{fill:#efadce;fill-rule:evenodd;}</style></defs><title>viewsPink</title><g id="Layer_2" data-name="Layer 2"><g id="Layer_1-2" data-name="Layer 1"><path class="cls-1" d="M74.9,50.91,65,66.27H25.45L5.63,35.51,25.45,4.74H65L84.83,35.51Zm4,2.56L69,68.83,67.58,71H22.88l-1.41-2.18L1.65,38.06,0,35.51,1.65,33,21.47,2.19,22.88,0h44.7L69,2.19,88.81,33l1.65,2.56-1.65,2.55Z"/><path class="cls-1" d="M11.36,35.51,28.27,61.75H62.19L79.1,35.51,62.19,9.26H28.27Zm6-1.71c.07-.1,25.2-33.67,55.49-.22l1.22,1.35L73,36.33c-29.14,35.86-55.5.13-55.57,0l-1-1.29Z"/><path class="cls-1" d="M21.81,35.09c2.23,2.62,7.93,8.55,15.67,11.27a13.2,13.2,0,0,1,.69-22.16C30,26.56,24.1,32.48,21.81,35.09"/><path class="cls-1" d="M58.59,35.51a13.23,13.23,0,0,1-6.18,11.18c5.08-1.61,10.51-5.16,16.08-11.62-5.63-5.86-11-9.16-16-10.72a13.23,13.23,0,0,1,6.15,11.16"/><path class="cls-1" d="M35.83,30.75a3.45,3.45,0,1,0,3.45-3.44,3.44,3.44,0,0,0-3.45,3.44"/></g></g></svg>