<svg xmlns="http://www.w3.org/2000/svg" viewBox="0 0 90.81 70.83"><defs><style>.cls-1,.cls-2{fill:none;stroke:#469079;stroke-miterlimit:22.93;}.cls-1{stroke-width:4.25px;}.cls-2{stroke-width:4.75px;}.cls-3{fill:#469079;fill-rule:evenodd;}</style></defs><title>viewsDarkGreen</title><g id="Layer_2" data-name="Layer 2"><g id="Layer_1-2" data-name="Layer 1"><path class="cls-1" d="M75.63,34.82c-33.1-36.56-60.55.1-60.55.1S43.85,73.92,75.63,34.82Z"/><polygon class="cls-2" points="66.69 68.45 77.34 51.93 87.98 35.41 77.34 18.89 66.69 2.38 45.4 2.38 24.11 2.38 13.47 18.89 2.83 35.41 13.47 51.93 24.11 68.45 45.4 68.45 66.69 68.45"/><path class="cls-3" d="M38.5,25.91a4,4,0,1,1-4,4,4,4,0,0,1,4-4M45.36,20A15.38,15.38,0,1,1,29.82,35.41,15.45,15.45,0,0,1,45.36,20Z"/></g></g></svg>