<?xml version="1.0" encoding="utf-8"?>
<!-- Generator: Adobe Illustrator 23.0.2, SVG Export Plug-In . SVG Version: 6.00 Build 0)  -->
<svg version="1.1" id="Layer_1" xmlns="http://www.w3.org/2000/svg" xmlns:xlink="http://www.w3.org/1999/xlink" x="0px" y="0px"
	 viewBox="0 0 61.3 70.3" style="enable-background:new 0 0 61.3 70.3;" xml:space="preserve">
<style type="text/css">
	.st0{fill:#DED6C7;}
</style>
<title>methodPinkTrans</title>
<g>
	<g id="Layer_1-2">
		<path class="st0" d="M33.6,41.9l-3.3-4.7l-3.2,4.7L33.6,41.9z M46.8,13.2l11,32.9V19.5L46.8,13.2z M16.9,11.8
			c0.1,0.1,0.3,0.3,0.4,0.4L30.3,31l13-18.9c0.2-0.2,0.4-0.4,0.6-0.6L30.7,3.9l-13.4,7.8l-0.1,0.1L16.9,11.8z M3.6,45.7l10-32
			l-10,5.8L3.6,45.7z M5.6,51.5c0,0.1-0.1,0.2-0.1,0.3L17,58.5l0.1,0l13.5,7.8l13.6-7.8l0,0l11.7-6.8c-0.1-0.1-0.1-0.2-0.1-0.3
			L44.3,17.1l-11.8,17l6,8.6c0.6,0.8,0.4,1.9-0.4,2.5c0,0,0,0,0,0c-0.3,0.2-0.6,0.3-1,0.3H23.7c-1,0-1.8-0.8-1.8-1.8
			c0-0.4,0.1-0.7,0.3-1l5.9-8.5l-11.8-17L5.6,51.5z M60.3,53.5L46,61.7l0,0L31.6,70c-0.6,0.3-1.3,0.3-1.8,0l-14.4-8.3l-0.1-0.1
			L0.9,53.3C0.3,53,0,52.4,0,51.8l0,0V18.5c0-0.7,0.4-1.3,1-1.6l14.3-8.3l0.1-0.1l14.3-8.3c0.6-0.3,1.3-0.3,1.8,0L46,8.6l0,0
			l14.4,8.3c0.6,0.3,0.9,0.9,0.9,1.6l0,0v33.3C61.3,52.5,60.9,53.1,60.3,53.5L60.3,53.5z"/>
	</g>
</g>
</svg>
