<svg xmlns="http://www.w3.org/2000/svg" viewBox="0 0 62.5 71.59"><defs><style>.cls-1{fill:#191919;}.cls-2{fill:#96d4c2;}</style></defs><title>methogLightGreenBlack</title><g id="Layer_2" data-name="Layer 2"><g id="Layer_1-2" data-name="Layer 1"><path class="cls-1" d="M61.43,54.44,46.87,62.85h0L32.17,71.34a1.85,1.85,0,0,1-1.85,0l-14.7-8.49-.09-.06L.93,54.36A1.83,1.83,0,0,1,0,52.77H0v-34a1.83,1.83,0,0,1,1-1.65L15.62,8.73l.11-.05L30.34.24a1.83,1.83,0,0,1,1.85,0L46.87,8.74h0l14.7,8.49a1.84,1.84,0,0,1,.92,1.59h0v34A1.84,1.84,0,0,1,61.43,54.44Z"/><path class="cls-2" d="M33.64,41.29,31,37.51l-2.6,3.76ZM44.26,18l8.88,26.61V23.15ZM20.09,17a1.81,1.81,0,0,1,.28.34L31,32.42,41.52,17.16a1.47,1.47,0,0,1,.49-.44L31.25,10.51,20.38,16.78l-.08,0ZM9.36,44.38l8.1-25.91-8.1,4.68ZM11,49a1.39,1.39,0,0,1-.12.28l9.38,5.41.08,0,11,6.32,11-6.32h0l9.46-5.45a1.12,1.12,0,0,1-.11-.25L42.26,21.22,32.76,35l4.88,7a1.45,1.45,0,0,1-1.2,2.28l-10.81,0a1.45,1.45,0,0,1-1.45-1.45,1.48,1.48,0,0,1,.25-.83L29.21,35,19.63,21.3ZM55.21,50.6,43.65,57.27h0L32,64a1.46,1.46,0,0,1-1.47,0L18.84,57.28l-.07-.05-11.6-6.7a1.47,1.47,0,0,1-.73-1.26h0v-27A1.44,1.44,0,0,1,7.26,21l11.58-6.69.09-.05,11.6-6.69a1.46,1.46,0,0,1,1.47,0l11.65,6.73h0l11.67,6.74a1.45,1.45,0,0,1,.73,1.26h0v27A1.47,1.47,0,0,1,55.21,50.6Z"/></g></g></svg>