<svg xmlns="http://www.w3.org/2000/svg" viewBox="0 0 71.87 69.58"><defs><style>.cls-1{fill:#191919;}.cls-2{fill:#ded6c7;}</style></defs><title>Asset 33</title><g id="Layer_2" data-name="Layer 2"><g id="Layer_1-2" data-name="Layer 1"><path class="cls-1" d="M70.64,49.87,53.9,59.53h0L37,69.3a2.11,2.11,0,0,1-2.12,0L18,59.53l-.11-.06L1.07,49.77A2.11,2.11,0,0,1,0,47.94H0v-39A2.12,2.12,0,0,1,1.19,7l69.62.08a2.09,2.09,0,0,1,1.06,1.82h0V47.94A2.12,2.12,0,0,1,70.64,49.87Z"/><path class="cls-2" d="M38.33,33.91l-2.65-3.77L33.09,33.9ZM49,10.65l8.88,26.61V15.77ZM24.78,9.58a1.4,1.4,0,0,1,.27.33L35.66,25.05,46.21,9.79a1.37,1.37,0,0,1,.49-.44L35.94,3.13,25.06,9.41,25,9.46ZM14,37l8.1-25.91L14,15.77Zm1.61,4.63a1.18,1.18,0,0,1-.12.28l9.38,5.42.08,0,11,6.32,10.94-6.32h0l9.45-5.46a2.56,2.56,0,0,1-.11-.24L47,13.84l-9.5,13.75,4.87,7a1.46,1.46,0,0,1-.36,2,1.48,1.48,0,0,1-.83.26l-10.81,0a1.45,1.45,0,0,1-1.2-2.28L33.9,27.6,24.31,13.93Zm44.24,1.59L48.34,49.9h0L36.67,56.64a1.48,1.48,0,0,1-1.47,0L23.53,49.9l-.08,0L11.86,43.16a1.45,1.45,0,0,1-.73-1.26h0v-27A1.47,1.47,0,0,1,12,13.62L23.53,6.93l.08,0L35.21.19a1.46,1.46,0,0,1,1.47,0L48.34,6.94h0L60,13.68a1.45,1.45,0,0,1,.72,1.26h0v27A1.46,1.46,0,0,1,59.89,43.23Z"/></g></g></svg>