<?xml version="1.0" encoding="utf-8"?>
<!-- Generator: Adobe Illustrator 23.0.3, SVG Export Plug-In . SVG Version: 6.00 Build 0)  -->
<svg version="1.1" id="Layer_1" xmlns="http://www.w3.org/2000/svg" xmlns:xlink="http://www.w3.org/1999/xlink" x="0px" y="0px"
	 viewBox="0 0 71.9 69.6" style="enable-background:new 0 0 71.9 69.6;" xml:space="preserve">
<style type="text/css">
	.st0{fill:#191919;}
	.st1{fill:#82F5D1;}
</style>
<title>Asset 34</title>
<path class="st0" d="M70.6,49.9l-16.7,9.7l0,0L37,69.3c-0.7,0.4-1.5,0.4-2.1,0L18,59.5l-0.1-0.1L1.1,49.8C0.4,49.4,0,48.7,0,47.9
	l0,0v-39C0,8.1,0.5,7.4,1.2,7l69.6,0.1c0.7,0.4,1.1,1.1,1.1,1.8l0,0v39C71.9,48.8,71.4,49.5,70.6,49.9z"/>
<path class="st1" d="M38.3,33.9l-2.7-3.8l-2.6,3.8L38.3,33.9z M49,10.6l8.9,26.6V15.8L49,10.6z M24.8,9.6c0.1,0.1,0.2,0.2,0.3,0.3
	L35.7,25L46.2,9.8c0.1-0.2,0.3-0.3,0.5-0.4L35.9,3.1L25.1,9.4L25,9.5L24.8,9.6z M14,37l8.1-25.9L14,15.8V37z M15.6,41.6
	c0,0.1-0.1,0.2-0.1,0.3l9.4,5.4h0.1l11,6.3l10.9-6.3l0,0l9.5-5.5c0-0.1-0.1-0.2-0.1-0.2L47,13.8l-9.5,13.8l4.9,7
	c0.4,0.7,0.3,1.5-0.4,2c-0.2,0.2-0.5,0.3-0.8,0.3H30.4c-0.8,0-1.5-0.6-1.5-1.4c0-0.3,0.1-0.6,0.3-0.8l4.7-7l-9.6-13.7L15.6,41.6z
	 M59.9,43.2l-11.5,6.7l0,0l-11.7,6.7c-0.5,0.3-1,0.3-1.5,0l-11.7-6.7h-0.1l-11.6-6.7c-0.5-0.3-0.7-0.7-0.7-1.3l0,0v-27
	c0-0.6,0.4-1.1,0.9-1.3l11.5-6.7h0.1l11.6-6.7c0.5-0.3,1-0.3,1.5,0l11.7,6.8l0,0L60,13.7c0.4,0.3,0.7,0.7,0.7,1.3l0,0v27
	C60.7,42.5,60.4,43,59.9,43.2L59.9,43.2z"/>
</svg>
