<svg xmlns="http://www.w3.org/2000/svg" viewBox="0 0 61.33 70.25"><defs><style>.cls-1{fill:#eeaccd;}</style></defs><title>methodPinkTrans</title><g id="Layer_2" data-name="Layer 2"><g id="Layer_1-2" data-name="Layer 1"><path class="cls-1" d="M33.62,41.92l-3.27-4.67L27.14,41.9ZM46.75,13.16l11,32.89V19.5ZM16.87,11.84a2,2,0,0,1,.35.41L30.33,31l13-18.86a1.77,1.77,0,0,1,.61-.55L30.67,3.87,17.23,11.63l-.09.06ZM3.61,45.74l10-32-10,5.78Zm2,5.73a1.28,1.28,0,0,1-.14.34L17,58.51l.1.05,13.53,7.81L44.2,58.56h0l11.69-6.75a1.38,1.38,0,0,1-.14-.3L44.28,17.11l-11.75,17,6,8.59a1.8,1.8,0,0,1-.45,2.51,1.76,1.76,0,0,1-1,.32l-13.37,0a1.8,1.8,0,0,1-1.8-1.79,1.85,1.85,0,0,1,.32-1l5.91-8.55L16.3,17.21Zm54.69,2L46,61.67h0L31.57,70a1.78,1.78,0,0,1-1.81,0L15.33,61.68l-.09-.06L.91,53.35A1.8,1.8,0,0,1,0,51.79H0V18.46a1.8,1.8,0,0,1,1-1.62L15.33,8.57l.11-.05L29.77.24a1.8,1.8,0,0,1,1.82,0L46,8.57h0L60.43,16.9a1.8,1.8,0,0,1,.9,1.56h0V51.79A1.81,1.81,0,0,1,60.28,53.43Z"/></g></g></svg>